Results
version=1
nRows=4
nColumns=49
inDegrees=yes
endheader
time	/jointset/bb/crank_angle/value	/jointset/bb/crank_angle/speed	/jointset/spindle/pedal_angle_r/value	/jointset/spindle/pedal_angle_r/speed	/jointset/ground_pelvis/pelvis_tilt/value	/jointset/ground_pelvis/pelvis_tilt/speed	/jointset/ground_pelvis/pelvis_list/value	/jointset/ground_pelvis/pelvis_list/speed	/jointset/ground_pelvis/pelvis_rotation/value	/jointset/ground_pelvis/pelvis_rotation/speed	/jointset/ground_pelvis/pelvis_tx/value	/jointset/ground_pelvis/pelvis_tx/speed	/jointset/ground_pelvis/pelvis_ty/value	/jointset/ground_pelvis/pelvis_ty/speed	/jointset/ground_pelvis/pelvis_tz/value	/jointset/ground_pelvis/pelvis_tz/speed	/jointset/hip_r/hip_angle_r/value	/jointset/hip_r/hip_angle_r/speed	/jointset/hip_r/hip_adduction_r/value	/jointset/hip_r/hip_adduction_r/speed	/jointset/hip_r/hip_rotation_r/value	/jointset/hip_r/hip_rotation_r/speed	/jointset/knee_r/knee_angle_r/value	/jointset/knee_r/knee_angle_r/speed	/jointset/knee_r/tib_tx_r/value	/jointset/knee_r/tib_tx_r/speed	/jointset/knee_r/tib_ty_r/value	/jointset/knee_r/tib_ty_r/speed	/jointset/tib_pat_r/pat_angle_r/value	/jointset/tib_pat_r/pat_angle_r/speed	/jointset/tib_pat_r/pat_tx_r/value	/jointset/tib_pat_r/pat_tx_r/speed	/jointset/tib_pat_r/pat_ty_r/value	/jointset/tib_pat_r/pat_ty_r/speed	/jointset/ankle_r/ankle_angle_r/value	/jointset/ankle_r/ankle_angle_r/speed	/jointset/subtalar_r/subtalar_angle_r/value	/jointset/subtalar_r/subtalar_angle_r/speed	/jointset/mtp_r/mtp_angle_r/value	/jointset/mtp_r/mtp_angle_r/speed	/forceset/bifemlh_r/activation	/forceset/bifemlh_r/fiber_length	/forceset/bifemsh_r/activation	/forceset/bifemsh_r/fiber_length	/forceset/glut_max2_r/activation	/forceset/glut_max2_r/fiber_length	/forceset/vas_int_r/activation	/forceset/vas_int_r/fiber_length
      0.00000000	    -11.65952496	     -3.99929689	      8.01843487	      5.01983589	     -0.00000000	     -0.00000000	      0.00000000	     -0.00000000	      0.00000000	      0.00000000	     -0.10000000	     -0.00000000	     -0.10000000	      0.00000000	      0.00000000	      0.00000000	     88.51984101	      0.24949508	      4.02223506	      0.01193255	     -4.43065905	      0.14447526	   -121.15894450	      1.25971905	     -0.00419442	      0.00047654	     -0.49640339	      0.00039617	     17.64903699	      0.00107111	      0.01884680	      0.00064548	     -0.02470637	      0.00010521	     29.74790983	     -0.50243876	      0.00000000	      0.00000000	     -0.00000000	     -0.00000000	      0.05000000	      0.10000000	      0.05000000	      0.10000000	      0.05000000	      0.10000000	      0.05000000	      0.10000000
      0.01000000	    -11.69861484	     -3.82578678	      8.06749758	      4.80163672	     -0.00000000	     -0.00000000	      0.00000000	      0.00000000	      0.00000000	      0.00000000	     -0.10000000	      0.00000000	     -0.10000000	     -0.00000000	     -0.00000000	     -0.00000000	     88.52227290	      0.23735467	      4.02235176	      0.01142903	     -4.42924645	      0.13829790	   -121.14662617	      1.20616035	     -0.00418976	      0.00045628	     -0.49639951	      0.00037932	     17.64904747	      0.00102557	      0.01885311	      0.00061803	     -0.02470534	      0.00010074	     29.74299789	     -0.48083851	      0.00000000	      0.00000000	      0.00000000	      0.00000000	      0.05000000	      0.10000000	      0.05000000	      0.10000000	      0.05000000	      0.10000000	      0.05000000	      0.10000000
      0.06000000	    -11.87922919	     -3.56308765	      8.29413645	      4.47015270	     -0.00000000	     -0.00000000	      0.00000000	      0.00000000	      0.00000000	      0.00000000	     -0.10000000	      0.00000000	     -0.10000000	     -0.00000000	      0.00000000	      0.00000000	     88.53333463	      0.21539011	      4.02289287	      0.01070517	     -4.42270757	      0.12919031	   -121.08956433	      1.12804139	     -0.00416817	      0.00042673	     -0.49638157	      0.00035475	     17.64909599	      0.00095914	      0.01888235	      0.00057801	     -0.02470058	      0.00009421	     29.72027617	     -0.44866498	     -0.00000000	     -0.00000000	      0.00000000	      0.00000000	      0.05000000	      0.10000000	      0.05000000	      0.10000000	      0.05000000	      0.10000000	      0.05000000	      0.10000000
      0.15476728	    -12.29626888	     -5.95547986	      8.81710673	      7.46469548	     -0.00000000	     -0.00000000	     -0.00000000	     -0.00000000	      0.00000000	     -0.00000000	     -0.10000000	      0.00000000	     -0.10000000	     -0.00000000	      0.00000000	     -0.00000000	     88.55779173	      0.33806930	      4.02415392	      0.01812791	     -4.40753541	      0.21741822	   -120.95691089	      1.90355701	     -0.00411799	      0.00072010	     -0.49633985	      0.00059864	     17.64920878	      0.00161854	      0.01895032	      0.00097538	     -0.02468950	      0.00015898	     29.66765285	     -0.75307939	     -0.00000000	     -0.00000000	      0.00000000	      0.00000000	      0.05000000	      0.10000000	      0.05000000	      0.10000000	      0.05000000	      0.10000000	      0.05000000	      0.10000000
